<svg viewBox="0 0 450 320" fill="none" xmlns="http://www.w3.org/2000/svg">
<path d="M157.717 277.231C208.923 277.231 250.434 235.72 250.434 184.514C250.434 133.308 208.923 91.7969 157.717 91.7969C106.511 91.7969 65 133.308 65 184.514C65 235.72 106.511 277.231 157.717 277.231Z" fill="url(#paint0_radial_4387_10655)"/>
<path d="M294.471 247.566C350.542 247.566 395.996 202.112 395.996 146.041C395.996 89.9704 350.542 44.5161 294.471 44.5161C238.401 44.5161 192.946 89.9704 192.946 146.041C192.946 202.112 238.401 247.566 294.471 247.566Z" fill="url(#paint1_radial_4387_10655)"/>
<path d="M241.673 182.73L191.538 109.055C189.292 105.756 185.859 103.455 181.951 102.639L112.05 88.0295C110.668 87.7434 109.469 88.3826 108.83 89.387L104.112 95.1152L111.618 98.6763L112.561 98.2014L158.21 165.284L156.037 178.329L105.439 241.649L98.3047 244.023L100.867 250.677C101.348 252.168 102.572 253.428 104.319 253.794L173.928 268.342C177.909 269.176 182.024 267.697 184.562 264.519L239.488 195.775C243.907 190.717 244.693 186.784 241.661 182.73H241.673Z" fill="black"/>
<path d="M236.787 188.712L153.33 171.266L98.9516 239.316C96.8028 242.006 98.2455 246.018 101.618 246.724L171.226 261.273C175.208 262.107 179.323 260.628 181.861 257.45L236.787 188.706V188.712Z" fill="white" stroke="black" stroke-width="0.463585" stroke-linecap="round" stroke-linejoin="round"/>
<path d="M236.784 188.703L153.327 171.256L103.989 98.7562C102.43 96.4613 104.451 93.4359 107.166 94.0081L177.067 108.618C180.975 109.433 184.408 111.734 186.655 115.034L236.79 188.709L236.784 188.703Z" fill="white" stroke="black" stroke-width="0.463585" stroke-linecap="round" stroke-linejoin="round"/>
<path d="M164.679 231.649L80.8203 214.281L114.629 172.188L198.488 189.555L164.679 231.649Z" fill="white" stroke="black" stroke-width="0.463585" stroke-linecap="round" stroke-linejoin="round"/>
<path d="M174.015 175.582C174.015 175.582 171.726 172.143 170.886 171.047C166.405 165.215 162.96 157.843 169.997 157.338C179.986 156.62 193.171 163.846 202.108 173.975C206.223 178.638 209.607 183.021 209.607 183.021" stroke="black" stroke-width="0.463585" stroke-linecap="round" stroke-linejoin="round"/>
<path d="M113.531 221.054L164.683 231.646L198.492 189.552L147.194 178.93L113.531 221.054Z" fill="#FFDB00" stroke="#FFDB00" stroke-width="0.927171" stroke-linecap="round" stroke-linejoin="round"/>
<path d="M174.007 175.578L163.396 188.562C162.368 189.822 163.043 191.722 164.632 192.057L169.405 193.049L163.463 200.262C162.623 201.279 163.171 202.825 164.462 203.093C166.422 203.501 168.443 202.788 169.709 201.242L175.425 194.297L182.657 195.794L176.722 203.008C175.881 204.024 176.429 205.57 177.72 205.838H177.738C179.698 206.246 181.719 205.534 182.991 203.994L188.707 197.048L193.267 197.992C195.391 198.43 197.589 197.657 198.965 195.971L209.599 183.011" stroke="black" stroke-width="0.463585" stroke-linecap="round" stroke-linejoin="round"/>
<path d="M166.213 173.975L158.446 183.41C157.515 184.536 158.117 186.253 159.554 186.545C161.319 186.91 163.145 186.271 164.296 184.877L172.301 175.217L166.213 173.969V173.975Z" stroke="black" stroke-width="0.463585" stroke-linecap="round" stroke-linejoin="round"/>
<path d="M211.415 183.406L203.672 192.884C202.759 193.992 203.349 195.672 204.755 195.958C206.563 196.336 208.426 195.678 209.601 194.254L217.539 184.685L211.421 183.406H211.415Z" fill="white" stroke="black" stroke-width="0.463585" stroke-linecap="round" stroke-linejoin="round"/>
<path d="M166.216 173.975L161.669 167.498C160.908 166.415 161.864 164.96 163.16 165.228C164.712 165.55 166.082 166.451 166.989 167.742L172.297 175.217L166.21 173.969L166.216 173.975Z" fill="white" stroke="black" stroke-width="0.463585" stroke-linecap="round" stroke-linejoin="round"/>
<path d="M211.417 183.401L206.894 176.797C206.158 175.743 207.083 174.337 208.343 174.593C209.962 174.928 211.399 175.871 212.349 177.223L217.535 184.655L211.417 183.395V183.401Z" fill="white" stroke="black" stroke-width="0.463585" stroke-linecap="round" stroke-linejoin="round"/>
<path d="M145.374 108.835C145.688 108.059 144.828 106.979 143.454 106.423C142.079 105.867 140.711 106.045 140.397 106.821C140.083 107.597 140.942 108.677 142.317 109.234C143.691 109.79 145.06 109.611 145.374 108.835Z" fill="black" stroke="black" stroke-width="0.463585" stroke-linecap="round" stroke-linejoin="round"/>
<path d="M324.664 237.955C324.645 237.821 324.633 237.693 324.609 237.559L292.511 69.6704C291.89 66.4198 288.809 64.2405 285.541 64.7336L211.592 75.8856L210.399 73.5541L205.742 78.2049C203.94 79.9458 203.015 82.539 203.52 85.1931L235.034 250.05C235.813 254.116 239.66 256.837 243.751 256.223L319.465 244.803C320.963 244.578 322.247 243.829 323.172 242.776L328.024 237.948H324.658L324.664 237.955Z" fill="black" stroke="black" stroke-width="0.463585" stroke-linecap="round" stroke-linejoin="round"/>
<path d="M324.365 239.926L248.651 251.346C244.56 251.961 240.713 249.24 239.934 245.173L208.42 80.3164C207.598 76.0187 210.514 71.9037 214.836 71.2524L290.435 59.8508C293.71 59.3577 296.784 61.537 297.405 64.7876L329.503 232.676C330.16 236.109 327.829 239.409 324.371 239.926H324.365Z" fill="white" stroke="black" stroke-width="0.463585" stroke-linecap="round" stroke-linejoin="round"/>
<path d="M264.14 69.8722L243.008 73.1096C241.403 73.3555 240.301 74.8561 240.547 76.4612C240.793 78.0662 242.293 79.1681 243.898 78.9222L265.03 75.6847C266.636 75.4388 267.737 73.9383 267.491 72.3332C267.246 70.7281 265.745 69.6263 264.14 69.8722Z" fill="black" stroke="black" stroke-width="0.463585" stroke-linecap="round" stroke-linejoin="round"/>
<path d="M341.062 140.857L246.617 154.596L236.305 101.356L330.75 87.6172L341.062 140.857Z" fill="white" stroke="black" stroke-width="0.463585" stroke-linecap="round" stroke-linejoin="round"/>
<path d="M246.617 154.602L312.548 145.008L302.37 91.75L236.305 101.362L246.617 154.602Z" fill="#FFDB00" stroke="#FFDB00" stroke-width="0.927171" stroke-linecap="round" stroke-linejoin="round"/>
<path d="M294.336 166.485C294.336 166.485 293.009 180.176 285.107 182.239C280.493 183.444 280.195 181.521 275.715 182.537C270.717 183.676 271.6 186.427 265.123 185.965C259.699 185.575 250.385 176.054 248.352 166.485C246.319 156.916 250.471 146.92 257.666 146.415C263.284 146.02 263.808 147.797 268.97 147.006C274.223 146.202 274.601 143.785 279.087 142.769C286.252 141.144 290.635 148.387 290.635 148.387C290.635 148.387 285.43 151.285 286.331 157.634C287.53 166.12 294.336 166.485 294.336 166.485Z" stroke="black" stroke-width="0.463585" stroke-linecap="round" stroke-linejoin="round"/>
<path d="M268.288 144.604C268.288 144.604 264.166 133.428 276.359 128.57C276.359 128.57 279.58 141.445 268.288 144.604Z" stroke="black" stroke-width="0.463585" stroke-linecap="round" stroke-linejoin="round"/>
<path d="M284.28 113.188L277.492 122.239L286.057 128.381" stroke="black" stroke-width="0.463585" stroke-linecap="round" stroke-linejoin="round"/>
<path d="M295.753 108.172L291.93 130.896" stroke="black" stroke-width="0.463585" stroke-linecap="round" stroke-linejoin="round"/>
<path d="M300.766 110.273L310.146 117.061L304.138 126.247" stroke="black" stroke-width="0.463585" stroke-linecap="round" stroke-linejoin="round"/>
<path d="M124.922 205.83L122.219 197.441L132.525 192.961" stroke="black" stroke-width="0.463585" stroke-linecap="round" stroke-linejoin="round"/>
<path d="M152.868 195.977L155.461 204.377L142.727 209.137" stroke="black" stroke-width="0.463585" stroke-linecap="round" stroke-linejoin="round"/>
<path d="M128.398 209.585L147.939 192.875" stroke="black" stroke-width="0.463585" stroke-linecap="round" stroke-linejoin="round"/>
<path d="M188.739 155.602L188.367 162.693" stroke="black" stroke-width="0.463585" stroke-linecap="round" stroke-linejoin="round"/>
<path d="M162.523 152.203L167.363 158.102" stroke="black" stroke-width="0.463585" stroke-linecap="round" stroke-linejoin="round"/>
<defs>
<radialGradient id="paint0_radial_4387_10655" cx="0" cy="0" r="1" gradientUnits="userSpaceOnUse" gradientTransform="translate(157.717 184.514) rotate(90) scale(92.7171)">
<stop stop-color="#FFDB00"/>
<stop offset="1" stop-color="white" stop-opacity="0"/>
</radialGradient>
<radialGradient id="paint1_radial_4387_10655" cx="0" cy="0" r="1" gradientUnits="userSpaceOnUse" gradientTransform="translate(294.471 146.041) rotate(90) scale(101.525 101.525)">
<stop stop-color="#FFDB00"/>
<stop offset="1" stop-color="white" stop-opacity="0"/>
</radialGradient>
</defs>
</svg>
